<svg display="none" version="1.1" xmlns="http://www.w3.org/2000/svg" xmlns:xlink="http://www.w3.org/1999/xlink">
	<defs>
		<symbol id="view" viewBox="0 0 27.69 17">
			<path d="M1.15,9.1A16.39,16.39,0,0,0,13.85,16c8.4.2,12.7-6.9,12.7-6.9S22.45,1,13.85,1,1.15,9.1,1.15,9.1Z" fill="none" stroke-miterlimit="10" stroke-width="2"/>
			<circle id="_Контур_2" cx="13.75" cy="8.1" r="6.1" fill="none" stroke-miterlimit="10" stroke-width="2"/>
		</symbol>

		<symbol id="clock" viewBox="0 0 27.4 27.4">
			<circle cx="13.7" cy="13.7" r="12.7" fill="none" stroke-miterlimit="10" stroke-width="2"/>
			<line x1="13.7" y1="14.6" x2="13.7" y2="3.6" fill="none"  stroke-miterlimit="10" stroke-width="2"/>
			<line x1="20.8" y1="13.7" x2="15.8" y2="13.7" fill="none" stroke-miterlimit="10" stroke-width="2"/>
		</symbol>

		<symbol id="calendar" viewBox="0 0 7.4 27.4">
			<rect x="1" y="1" width="25.4" height="25.4" fill="none" stroke-miterlimit="10" stroke-width="2"/>
			<line x1="1" y1="7.6" x2="26.4" y2="7.6" fill="none" stroke-miterlimit="10" stroke-width="2"/>
			
			<path d="M7.5,20.6V19a3.38,3.38,0,0,0,2,.6,1.8,1.8,0,0,0,1.1-.3.91.91,0,0,0,.4-.8,1.05,1.05,0,0,0-.5-.9,2.5,2.5,0,0,0-1.3-.3H8.4V15.9h.7c1.1,0,1.6-.4,1.6-1.1s-.4-1-1.3-1a3,3,0,0,0-1.6.5V12.8a4.64,4.64,0,0,1,2.1-.4,3,3,0,0,1,2,.6,1.8,1.8,0,0,1,.7,1.5,2,2,0,0,1-1.7,2.1h0a2.59,2.59,0,0,1,1.4.6,1.9,1.9,0,0,1,.5,1.3,2.32,2.32,0,0,1-.9,1.9,3.61,3.61,0,0,1-2.4.7A4.55,4.55,0,0,1,7.5,20.6Z"/>
			<path d="M19.9,20.9H14.5V19.4h1.7V14.2l-1.8.4V13.1l3.6-.7v7.1h1.7v1.4Z"/>
		</symbol>

		<symbol id="pdf" viewBox="0 0 34.6 45.8">
				<path d="M2.1,1H25.6a1.14,1.14,0,0,1,.8.3l6.9,6.9a1.14,1.14,0,0,1,.3.8V43.7a1.11,1.11,0,0,1-1.1,1.1H2.1A1.11,1.11,0,0,1,1,43.7V2.1A1.11,1.11,0,0,1,2.1,1Z" fill="none" stroke-miterlimit="10" stroke-width="2"/>
				<polyline points="25.9 1 25.9 8.5 33.7 8.5" fill="none" stroke-miterlimit="10" stroke-width="2"/>
				<path d="M8.5,25.2v2.9H6.6V19.7h3c2.1,0,3.2.9,3.2,2.7a2.52,2.52,0,0,1-.9,2,3.65,3.65,0,0,1-2.4.8Zm0-4v2.6h.7c1,0,1.5-.4,1.5-1.3s-.5-1.3-1.5-1.3H8.5Z"/>
				<path d="M13.9,28.1V19.7h3c3,0,4.5,1.4,4.5,4.1a4,4,0,0,1-1.2,3.1,4.9,4.9,0,0,1-3.3,1.2h-3Zm1.9-6.9v5.3h.9a2.35,2.35,0,0,0,1.9-.7,3.22,3.22,0,0,0,.7-2,2.42,2.42,0,0,0-2.6-2.6h-.9Z"/>
				<path d="M27.6,21.2h-3v2.1h2.7v1.5H24.6v3.3H22.7V19.7h4.9Z"/>
		</symbol>

		<symbol id="doc" viewBox="0 0 34.61 45.8">
				<path d="M2,1h23.6a1.14,1.14,0,0,1,.8.3l6.9,6.9a1.14,1.14,0,0,1,.3.8V43.7a1.11,1.11,0,0,1-1.1,1.1H2.11A1.11,1.11,0,0,1,1,43.7V2.1A1,1,0,0,1,2,1Z" fill="none" stroke-miterlimit="10" stroke-width="2"/>
				<polyline points="25.81 1 25.81 8.6 33.61 8.6" fill="none" stroke-miterlimit="10" stroke-width="2"/>
				<path d="M5.31,28.2V19.8h3c3,0,4.5,1.4,4.5,4.1a4,4,0,0,1-1.2,3.1,4.9,4.9,0,0,1-3.3,1.2h-3Zm1.9-6.9v5.3h.9a2.35,2.35,0,0,0,1.9-.7,3.22,3.22,0,0,0,.7-2,2.42,2.42,0,0,0-2.6-2.6h-.9Z"/>
				<path d="M17.71,28.3a3.7,3.7,0,0,1-2.9-1.2,4.5,4.5,0,0,1-1.1-3.1,4.38,4.38,0,0,1,1.2-3.2A4.14,4.14,0,0,1,18,19.6a3.7,3.7,0,0,1,2.9,1.2A4.5,4.5,0,0,1,22,23.9a4.38,4.38,0,0,1-1.2,3.2A4.3,4.3,0,0,1,17.71,28.3Zm.1-7a1.86,1.86,0,0,0-1.6.7,3.17,3.17,0,0,0-.6,2,3.17,3.17,0,0,0,.6,2,1.8,1.8,0,0,0,1.5.7,1.86,1.86,0,0,0,1.6-.7,3,3,0,0,0,.6-2,3,3,0,0,0-.6-2A1.8,1.8,0,0,0,17.81,21.3Z"/>
				<path d="M29.21,27.9a5.46,5.46,0,0,1-2.4.4,4.08,4.08,0,0,1-3-1.1,4.25,4.25,0,0,1-1.1-3,4.79,4.79,0,0,1,1.2-3.3,4.08,4.08,0,0,1,3.2-1.3,6.65,6.65,0,0,1,2.1.3v1.8a4.14,4.14,0,0,0-1.9-.5,2.49,2.49,0,0,0-1.9.7,2.72,2.72,0,0,0-.7,2,2.35,2.35,0,0,0,.7,1.9,2.88,2.88,0,0,0,1.8.7,4.55,4.55,0,0,0,2-.5v1.9Z"/>
		</symbol>

	</defs>
</svg>